<?xml version="1.0" encoding="UTF-8"?>
<svg id="Calque_1" xmlns="http://www.w3.org/2000/svg" viewBox="0 0 880.4 425.39">
  <defs>
    <style>
      .cls-1 {
        fill: none;
      }

      .cls-2 {
        fill: orange;
      }
    </style>
  </defs>
  <g>
    <path class="cls-2" d="M21.26,329.67C7.09,294.33,0,255.34,0,212.7s7.09-81.63,21.26-116.97C35.44,60.39,56.78,28.48,85.3,0l33.64,28.11c-24.19,24.79-42.29,52.53-54.3,83.22-12.01,30.69-18.02,64.48-18.02,101.37s6.01,70.68,18.02,101.37c12.01,30.69,30.11,58.5,54.3,83.44l-33.64,27.89c-28.51-28.48-49.86-60.39-64.03-95.72Z"/>
    <path class="cls-2" d="M761.46,397.5c24.19-24.94,42.29-52.75,54.3-83.44,12.01-30.69,18.02-64.48,18.02-101.37s-6.01-70.68-18.02-101.37c-12.01-30.69-30.12-58.43-54.3-83.22L795.1,0c28.51,28.48,49.86,60.39,64.03,95.72,14.18,35.34,21.26,74.33,21.26,116.97s-7.09,81.63-21.26,116.97c-14.18,35.34-35.52,67.25-64.03,95.72l-33.64-27.89Z"/>
  </g>
  <g>
    <rect class="cls-1" x="144.24" y="134.58" width="599.23" height="252.39"/>
    <path class="cls-2" d="M203.48,242.43l16.27-107.85h33.2v151.9h-22.57v-108.93l-16.49,108.93h-22.57l-17.79-107.41v107.41h-20.83v-151.9h33.2l17.58,107.85Z"/>
    <path class="cls-2" d="M294.18,198.59h32.77v21.7h-32.77v44.48h41.23v21.7h-65.1v-151.9h65.1v21.7h-41.23v42.31Z"/>
    <path class="cls-2" d="M382.28,132.84c23.22,0,35.15,13.89,35.15,38.19v4.77h-22.57v-6.29c0-10.85-4.34-14.97-11.93-14.97s-11.94,4.12-11.94,14.97c0,31.25,46.65,37.11,46.65,80.51,0,24.3-12.15,38.19-35.59,38.19s-35.59-13.89-35.59-38.19v-9.33h22.57v10.85c0,10.85,4.77,14.76,12.37,14.76s12.37-3.91,12.37-14.76c0-31.25-46.65-37.11-46.65-80.5,0-24.3,11.93-38.19,35.15-38.19Z"/>
    <path class="cls-2" d="M455.19,286.48h-23.87v-151.9h23.87v65.1h27.12v-65.1h24.3v151.9h-24.3v-65.1h-27.12v65.1Z"/>
    <path class="cls-2" d="M547.85,198.59h32.77v21.7h-32.77v44.48h41.23v21.7h-65.1v-151.9h65.1v21.7h-41.23v42.31Z"/>
    <path class="cls-2" d="M603.83,134.58h23.87v130.2h39.28v21.7h-63.15v-151.9Z"/>
    <path class="cls-2" d="M677.39,134.58h23.87v130.2h39.28v21.7h-63.15v-151.9Z"/>
  </g>
</svg>